<?xml version="1.0" encoding="utf-8"?>
<!-- Generator: Adobe Illustrator 15.1.0, SVG Export Plug-In . SVG Version: 6.00 Build 0)  -->
<!DOCTYPE svg PUBLIC "-//W3C//DTD SVG 1.1//EN" "http://www.w3.org/Graphics/SVG/1.1/DTD/svg11.dtd">
<svg version="1.1" xmlns="http://www.w3.org/2000/svg" xmlns:xlink="http://www.w3.org/1999/xlink" x="0px" y="0px"
	 width="105.052px" height="220.359px" viewBox="0 0 105.052 220.359" enable-background="new 0 0 105.052 220.359"
	 xml:space="preserve">
<g id="Layer_2" display="none">
	<rect x="-43.75" y="-15.509" display="inline" fill="#BF0067" width="183.333" height="245.667"/>
</g>
<g id="Outline" display="none">
	<path id="Back" display="inline" fill="#FFFFFF" d="M91.953,0.902H14.075c-7.223,0-13.099,5.876-13.099,13.1v193.257
		c0,7.224,5.876,13.1,13.099,13.1h77.877c7.224,0,13.1-5.876,13.1-13.1V14.002C105.052,6.778,99.176,0.902,91.953,0.902
		 M104.052,207.259c0,6.672-5.428,12.1-12.1,12.1H14.075c-6.671,0-12.099-5.428-12.099-12.1V14.002c0-6.672,5.428-12.1,12.099-12.1
		h77.877c6.672,0,12.1,5.428,12.1,12.1V207.259z"/>
	<path id="Screen" display="inline" fill="#FFFFFF" d="M99.181,34.709v154.196h-3.098h-89H6.847V34.709H99.181 M100.181,33.709
		H5.847v156.196h1.237h89h4.098V33.709L100.181,33.709z"/>
	<path id="Front" display="inline" fill="#FFFFFF" d="M91.953,0.902H88.63V0.749C88.63,0.336,88.295,0,87.882,0H73.109
		c-0.412,0-0.748,0.336-0.748,0.749v0.153H14.075c-7.223,0-13.099,5.876-13.099,13.1v18.904H0.772c-0.396,0-0.717,0.321-0.717,0.716
		v9.358c0,0.395,0.321,0.716,0.717,0.716h0.204v8.152H0.718C0.323,51.848,0,52.17,0,52.565v6.485c0,0.395,0.323,0.716,0.718,0.716
		h0.258v7.194H0.718C0.323,66.96,0,67.281,0,67.676v6.485c0,0.395,0.323,0.717,0.718,0.717h0.258v132.381
		c0,7.224,5.876,13.1,13.099,13.1h77.877c7.223,0,13.1-5.876,13.1-13.1V14.002C105.052,6.778,99.175,0.902,91.953,0.902
		 M104.052,207.259c0,6.672-5.428,12.1-12.1,12.1H14.075c-6.671,0-12.099-5.428-12.099-12.1V14.002c0-6.672,5.428-12.1,12.099-12.1
		h77.877c6.672,0,12.1,5.428,12.1,12.1V207.259z"/>
	<path id="Speaker" display="inline" fill="#FFFFFF" d="M43.725,22.284h17.521c0.846,0,1.532-0.685,1.532-1.53
		c0-0.846-0.687-1.532-1.532-1.532H43.725c-0.846,0-1.53,0.686-1.53,1.532C42.195,21.599,42.878,22.284,43.725,22.284
		 M43.725,20.212h17.521c0.3,0,0.542,0.244,0.542,0.542s-0.242,0.541-0.542,0.541H43.725c-0.298,0-0.541-0.243-0.541-0.541
		S43.427,20.212,43.725,20.212"/>
	<path id="Camera" display="inline" fill="#FFFFFF" d="M52.487,15.316c1.074,0,1.944-0.872,1.944-1.947
		c0-1.076-0.87-1.948-1.944-1.948c-1.075,0-1.947,0.872-1.947,1.948C50.54,14.444,51.412,15.316,52.487,15.316 M52.487,12.68
		c0.379,0,0.687,0.309,0.687,0.689c0,0.379-0.308,0.687-0.687,0.687c-0.38,0-0.688-0.308-0.688-0.687
		C51.799,12.989,52.107,12.68,52.487,12.68"/>
</g>
<g id="Fill">
	<path id="Back_1_" fill="#FFFFFF" d="M91.953,0.902H14.075c-7.223,0-13.099,5.876-13.099,13.1v193.257
		c0,7.224,5.876,13.1,13.099,13.1h77.877c7.224,0,13.1-5.876,13.1-13.1V14.002C105.052,6.778,99.176,0.902,91.953,0.902
		 M104.052,207.259c0,6.672-5.428,12.1-12.1,12.1H14.075c-6.671,0-12.099-5.428-12.099-12.1V14.002c0-6.672,5.428-12.1,12.099-12.1
		h77.877c6.672,0,12.1,5.428,12.1,12.1V207.259z"/>
	<path id="Outline_1_" fill="#FFFFFF" d="M91.953,0.902H88.63V0.749C88.63,0.336,88.295,0,87.882,0H73.109
		c-0.412,0-0.748,0.336-0.748,0.749v0.153H14.075c-7.223,0-13.099,5.876-13.099,13.1v18.904H0.772c-0.396,0-0.717,0.321-0.717,0.716
		v9.358c0,0.395,0.321,0.716,0.717,0.716h0.204v8.152H0.718C0.323,51.848,0,52.17,0,52.565v6.485c0,0.395,0.323,0.716,0.718,0.716
		h0.258v7.194H0.718C0.323,66.96,0,67.281,0,67.676v6.485c0,0.395,0.323,0.717,0.718,0.717h0.258v132.381
		c0,7.224,5.876,13.1,13.099,13.1h77.877c7.223,0,13.1-5.876,13.1-13.1V14.002C105.052,6.778,99.175,0.902,91.953,0.902
		 M104.052,207.259c0,6.672-5.428,12.1-12.1,12.1H14.075c-6.671,0-12.099-5.428-12.099-12.1V14.002c0-6.672,5.428-12.1,12.099-12.1
		h77.877c6.672,0,12.1,5.428,12.1,12.1V207.259z"/>
	<path id="Speaker_1_" fill="#FFFFFF" d="M43.725,20.209h17.521c0.3,0,0.542,0.244,0.542,0.542s-0.242,0.541-0.542,0.541H43.725
		c-0.298,0-0.541-0.243-0.541-0.541S43.427,20.209,43.725,20.209"/>
	<g>
		<path fill="#FFFFFF" d="M54.498,201.376h-3.942c-0.773,0-1.402,0.629-1.402,1.401v3.941c0,0.773,0.629,1.402,1.402,1.402
			l3.942,0.001c0.772,0,1.401-0.63,1.401-1.403v-3.941C55.899,202.005,55.27,201.376,54.498,201.376z"/>
		<path fill="#FFFFFF" d="M91.953,1.902H14.076c-6.672,0-12.1,5.428-12.1,12.1v193.257c0,6.673,5.428,12.101,12.1,12.101h77.876
			c6.672,0,12.1-5.428,12.1-12.101V14.001C104.052,7.33,98.625,1.902,91.953,1.902z M52.487,11.421c1.074,0,1.944,0.872,1.944,1.948
			c0,1.075-0.87,1.947-1.944,1.947c-1.075,0-1.947-0.872-1.947-1.947C50.54,12.292,51.412,11.421,52.487,11.421z M43.725,19.222
			h17.521c0.846,0,1.532,0.686,1.532,1.532c0,0.845-0.687,1.53-1.532,1.53H43.725c-0.846,0-1.53-0.685-1.53-1.53
			C42.195,19.908,42.878,19.222,43.725,19.222z M52.527,215.837c-6.115,0-11.089-4.974-11.089-11.088s4.974-11.089,11.089-11.089
			c6.114,0,11.088,4.975,11.088,11.089S58.641,215.837,52.527,215.837z M100.182,189.906h-4.099h-89H5.847V33.709h94.335V189.906z"
			/>
		<path fill="#FFFFFF" d="M52.527,194.26c-5.784,0-10.489,4.706-10.489,10.489s4.706,10.488,10.489,10.488
			c5.783,0,10.488-4.705,10.488-10.488S58.31,194.26,52.527,194.26z M56.499,206.719c0,1.104-0.897,2.003-2.001,2.003l-3.942-0.001
			c-1.104,0-2.002-0.898-2.002-2.002v-3.941c0-1.104,0.898-2.001,2.002-2.001h3.942c1.104,0,2.001,0.897,2.001,2.001V206.719z"/>
	</g>
</g>
</svg>
